<?xml version="1.0" encoding="UTF-8" standalone="no"?><!DOCTYPE svg PUBLIC "-//W3C//DTD SVG 1.1//EN" "http://www.w3.org/Graphics/SVG/1.1/DTD/svg11.dtd"><svg width="100%" height="100%" viewBox="0 0 512 512" version="1.1" xmlns="http://www.w3.org/2000/svg" xmlns:xlink="http://www.w3.org/1999/xlink" xml:space="preserve" xmlns:serif="http://www.serif.com/" style="fill-rule:evenodd;clip-rule:evenodd;stroke-linejoin:round;stroke-miterlimit:2;"><g><path d="M184.67,411.667c-3.559,0.663 -5.115,2.334 -4.669,4.998c0.444,2.665 2.444,3.556 5.999,2.665c3.56,-0.887 5.114,-2.446 4.667,-4.666c-0.442,-2.443 -2.442,-3.444 -5.997,-2.997Z" style="fill:#ffc23b;fill-rule:nonzero;"/><path d="M165.669,414.336c-3.556,0 -5.333,1.215 -5.333,3.665c0,2.888 1.89,4.107 5.666,3.663c3.556,0 5.335,-1.222 5.335,-3.663c0,-2.885 -1.89,-4.112 -5.668,-3.665Z" style="fill:#ffc23b;fill-rule:nonzero;"/><path d="M139.669,413.328c-0.887,2.446 0.558,4.109 4.333,5.002c3.333,1.327 5.445,0.663 6.333,-2.001c0.667,-2.442 -0.778,-4.215 -4.333,-5.334c-3.334,-0.886 -5.444,-0.119 -6.333,2.333Z" style="fill:#ffc23b;fill-rule:nonzero;"/><path d="M483.832,28.164c-18.778,-18.775 -41.384,-28.164 -67.834,-28.164l-319.999,0c-26.442,0 -49.055,9.389 -67.835,28.164c-18.775,18.779 -28.164,41.392 -28.164,67.835l0,320.004c0,26.444 9.389,49.056 28.164,67.831c18.779,18.778 41.393,28.167 67.835,28.167l74.667,0c4.885,0 8.554,-0.168 10.998,-0.495c2.442,-0.336 4.885,-1.781 7.331,-4.34c2.447,-2.553 3.666,-6.276 3.666,-11.163c0,-0.664 -0.059,-8.227 -0.168,-22.67c-0.114,-14.448 -0.168,-25.891 -0.168,-34.337l-7.668,1.335c-4.888,0.887 -11.055,1.278 -18.5,1.166c-7.442,-0.112 -15.166,-0.887 -23.165,-2.333c-8.003,-1.446 -15.445,-4.778 -22.335,-9.996c-6.886,-5.227 -11.774,-12.058 -14.664,-20.501l-3.334,-7.671c-2.222,-5.106 -5.72,-10.775 -10.498,-16.992c-4.779,-6.226 -9.611,-10.449 -14.5,-12.67l-2.334,-1.668c-1.554,-1.11 -2.998,-2.449 -4.332,-4.003c-1.333,-1.559 -2.332,-3.116 -2.999,-4.667c-0.666,-1.558 -0.113,-2.837 1.666,-3.84c1.78,-0.998 4.999,-1.493 9.668,-1.493l6.664,0.998c4.446,0.888 9.942,3.552 16.502,7.999c6.554,4.444 11.942,10.22 16.165,17.33c5.114,9.113 11.275,16.053 18.501,20.832c7.219,4.783 14.499,7.172 21.831,7.172c7.332,0 13.665,-0.556 19,-1.663c5.33,-1.114 10.33,-2.784 14.999,-5.006c2,-14.887 7.446,-26.338 16.332,-34.337c-12.666,-1.334 -24.054,-3.332 -34.168,-6.001c-10.108,-2.669 -20.554,-6.999 -31.33,-13.002c-10.781,-6.001 -19.724,-13.44 -26.836,-22.334c-7.11,-8.894 -12.945,-20.56 -17.497,-35c-4.555,-14.448 -6.833,-31.117 -6.833,-50.004c0,-26.887 8.781,-49.78 26.336,-68.667c-8.224,-20.221 -7.448,-42.885 2.332,-67.998c6.444,-2.001 16.002,-0.5 28.667,4.501c12.668,5.004 21.942,9.282 27.834,12.833c5.891,3.552 10.611,6.554 14.167,9.001c20.671,-5.778 42.003,-8.666 64.002,-8.666c21.997,0 43.332,2.888 64.004,8.666l12.667,-7.999c8.67,-5.336 18.89,-10.224 30.669,-14.667c11.778,-4.443 20.776,-5.667 27.002,-3.666c9.996,25.114 10.89,47.778 2.66,67.998c17.555,18.889 26.339,41.781 26.339,68.668c0,18.89 -2.278,35.615 -6.833,50.167c-4.551,14.555 -10.436,26.226 -17.664,35.003c-7.22,8.779 -16.222,16.162 -26.998,22.167c-10.779,5.997 -21.223,10.336 -31.336,12.997c-10.112,2.669 -21.499,4.674 -34.166,6.009c11.548,9.996 17.325,25.769 17.325,47.329l0,79.669c0,3.779 0.551,6.832 1.663,9.166c1.118,2.333 2.893,3.94 5.337,4.835c2.454,0.887 4.61,1.442 6.504,1.663c1.894,0.223 4.61,0.335 8.167,0.335l74.666,0c26.442,0 49.057,-9.39 67.827,-28.168c18.779,-18.778 28.168,-41.393 28.168,-67.835l0,-319.989c-0.003,-26.443 -9.392,-49.06 -28.167,-67.835Z" style="fill:#ffc23b;fill-rule:nonzero;"/><path d="M101.333,372.667c-1.554,1.107 -1.332,2.885 0.667,5.33c2.226,2.22 4.002,2.555 5.336,0.998c1.554,-1.107 1.332,-2.885 -0.671,-5.335c-2.221,-1.996 -3.998,-2.331 -5.332,-0.993Z" style="fill:#ffc23b;fill-rule:nonzero;"/><path d="M90.336,364.333c-0.666,1.559 0.112,2.893 2.334,4c1.775,1.115 3.224,0.896 4.332,-0.663c0.666,-1.559 -0.112,-2.893 -2.334,-4.008c-2.221,-0.668 -3.666,-0.444 -4.332,0.671Z" style="fill:#ffc23b;fill-rule:nonzero;"/><path d="M111.669,385.668c-2.003,1.107 -2.003,3.113 0,5.998c2,2.893 3.885,3.668 5.666,2.333c2.001,-1.558 2.001,-3.669 0,-6.336c-1.776,-2.882 -3.666,-3.557 -5.666,-1.995Z" style="fill:#ffc23b;fill-rule:nonzero;"/><path d="M123.338,400.663c-2.001,1.781 -1.56,3.884 1.333,6.337c2.664,2.661 4.886,2.996 6.665,0.991c1.779,-1.773 1.334,-3.883 -1.334,-6.328c-2.663,-2.662 -4.886,-2.998 -6.664,-1Z" style="fill:#ffc23b;fill-rule:nonzero;"/></g></svg>